<?xml version="1.0" encoding="UTF-8" standalone="no"?><!DOCTYPE svg PUBLIC "-//W3C//DTD SVG 1.1//EN" "http://www.w3.org/Graphics/SVG/1.1/DTD/svg11.dtd"><svg width="100%" height="100%" viewBox="0 0 180 120" version="1.1" xmlns="http://www.w3.org/2000/svg" xmlns:xlink="http://www.w3.org/1999/xlink" xml:space="preserve" xmlns:serif="http://www.serif.com/" style="fill-rule:evenodd;clip-rule:evenodd;stroke-linecap:round;stroke-miterlimit:1.5;"><rect x="24.375" y="13" width="131.25" height="84.375" style="fill:none;stroke:#3f50b0;stroke-width:3.5px;"/><path d="M165,97.375l0,-83.437c0,-5.692 -4.621,-10.313 -10.313,-10.313l-129.374,0c-5.692,0 -10.313,4.621 -10.313,10.313l0,83.437" style="fill:none;stroke:#3f50b0;stroke-width:3.5px;stroke-linejoin:round;"/><path d="M175,106.375l-170,0c0,5.519 4.232,10 9.444,10l151.112,0c5.212,0 9.444,-4.481 9.444,-10Z" style="fill:none;stroke:#3f50b0;stroke-width:3.5px;"/><path d="M104.167,106.375l-28.334,0c0,2.76 2.116,5 4.723,5l18.888,0c2.607,0 4.723,-2.24 4.723,-5Z" style="fill:none;stroke:#3f50b0;stroke-width:3.5px;"/></svg>