<?xml version="1.0" encoding="UTF-8" standalone="no"?><!DOCTYPE svg PUBLIC "-//W3C//DTD SVG 1.1//EN" "http://www.w3.org/Graphics/SVG/1.1/DTD/svg11.dtd"><svg width="100%" height="100%" viewBox="0 0 32 32" version="1.1" xmlns="http://www.w3.org/2000/svg" xmlns:xlink="http://www.w3.org/1999/xlink" xml:space="preserve" xmlns:serif="http://www.serif.com/" style="fill-rule:evenodd;clip-rule:evenodd;stroke-linejoin:round;stroke-miterlimit:1.41421;"><g><g><path d="M15.998,4.229c0.491,0 0.969,0.023 1.436,0.065l0,-3.48c0,-0.45 -0.641,-0.814 -1.433,-0.814c-0.791,0 -1.435,0.364 -1.435,0.814l0,3.483c0.467,-0.044 0.944,-0.068 1.432,-0.068Z" style="fill:#3f50b0;fill-rule:nonzero;"/><path d="M15.998,27.772c-0.488,0 -0.965,-0.024 -1.432,-0.068l0,3.483c0,0.45 0.644,0.814 1.436,0.814c0.791,0 1.432,-0.364 1.432,-0.814l0,-3.48c-0.467,0.042 -0.945,0.065 -1.436,0.065Z" style="fill:#3f50b0;fill-rule:nonzero;"/></g><g><path d="M3.946,16c0,-0.489 0.027,-0.967 0.074,-1.434l-3.206,0c-0.45,0 -0.814,0.641 -0.814,1.434c0,0.792 0.364,1.434 0.814,1.434l3.206,0c-0.047,-0.467 -0.074,-0.944 -0.074,-1.434Z" style="fill:#3f50b0;fill-rule:nonzero;"/><path d="M31.186,14.566l-3.204,0c0.046,0.467 0.072,0.945 0.072,1.435c0,0.489 -0.026,0.967 -0.072,1.433l3.204,0c0.452,0 0.814,-0.642 0.814,-1.433c0,-0.794 -0.361,-1.435 -0.814,-1.435Z" style="fill:#3f50b0;fill-rule:nonzero;"/></g><path d="M15.998,4.955c-6.704,0 -11.307,4.468 -11.307,11.045c0,6.575 4.603,11.046 11.307,11.046c6.84,0 11.311,-4.471 11.311,-11.046c0,-6.577 -4.471,-11.045 -11.311,-11.045Zm0,16.588c-3.361,0 -5.671,-2.244 -5.671,-5.543c0,-3.299 2.31,-5.541 5.671,-5.541c3.435,0 5.678,2.242 5.678,5.541c0,3.299 -2.243,5.543 -5.678,5.543Z" style="fill:#3f50b0;fill-rule:nonzero;"/></g></svg>