<?xml version="1.0" encoding="utf-8"?>
<!-- Generator: Adobe Illustrator 16.0.0, SVG Export Plug-In . SVG Version: 6.00 Build 0)  -->
<!DOCTYPE svg PUBLIC "-//W3C//DTD SVG 1.1//EN" "http://www.w3.org/Graphics/SVG/1.1/DTD/svg11.dtd">
<svg version="1.1" id="Layer_1" xmlns="http://www.w3.org/2000/svg" xmlns:xlink="http://www.w3.org/1999/xlink" x="0px" y="0px"
	 width="515.91px" height="150.405px" viewBox="0 0 515.91 150.405" enable-background="new 0 0 515.91 150.405"
	 xml:space="preserve">
<g>
	<g>
		<g>
			<path fill="#FFFFFF" d="M73.213,36.635c1.745,0,3.445,0.083,5.105,0.233V24.495c0-1.6-2.28-2.896-5.095-2.896
				s-5.105,1.296-5.105,2.896v12.382C69.779,36.722,71.475,36.635,73.213,36.635z"/>
			<path fill="#FFFFFF" d="M73.213,120.353c-1.738,0-3.434-0.086-5.094-0.242v12.384c0,1.6,2.29,2.896,5.105,2.896
				s5.095-1.296,5.095-2.896v-12.376C76.658,120.27,74.958,120.353,73.213,120.353z"/>
		</g>
		<g>
			<path fill="#FFFFFF" d="M30.357,78.494c0-1.742,0.094-3.44,0.261-5.101H19.219c-1.598,0-2.894,2.28-2.894,5.101
				c0,2.815,1.296,5.098,2.894,5.098h11.399C30.451,81.932,30.357,80.235,30.357,78.494z"/>
			<path fill="#FFFFFF" d="M127.218,73.394h-11.393c0.163,1.661,0.254,3.359,0.254,5.101c0,1.741-0.091,3.438-0.254,5.098h11.393
				c1.608,0,2.894-2.283,2.894-5.098C130.112,75.673,128.827,73.394,127.218,73.394z"/>
		</g>
		<path fill="#F7BB09" d="M73.213,39.217c-23.84,0-40.208,15.889-40.208,39.277c0,23.377,16.367,39.278,40.208,39.278
			c24.322,0,40.22-15.901,40.22-39.278C113.433,55.105,97.535,39.217,73.213,39.217z M73.213,98.203
			c-11.954,0-20.167-7.981-20.167-19.709c0-11.732,8.213-19.706,20.167-19.706c12.211,0,20.188,7.974,20.188,19.706
			C93.401,90.222,85.424,98.203,73.213,98.203z"/>
	</g>
	<g>
		<path fill="#FFFFFF" d="M147.035,105.96V49.168c0-0.938,0.512-1.45,1.449-1.45h9.125c0.937,0,1.451,0.511,1.451,1.45v47.411
			c0,0.342,0.169,0.512,0.511,0.512h27.372c0.939,0,1.45,0.514,1.45,1.451v7.419c0,0.938-0.51,1.449-1.45,1.449h-38.458
			C147.546,107.409,147.035,106.898,147.035,105.96z"/>
		<path fill="#FFFFFF" d="M193.874,52.239c0-4.547,3.181-7.633,7.814-7.633c4.728,0,7.817,3.086,7.817,7.633
			c0,4.543-3.089,7.634-7.817,7.634C197.055,59.873,193.874,56.782,193.874,52.239z"/>
		<path fill="#F7BB09" d="M194.356,52.239c0-4.266,2.985-7.164,7.333-7.164c4.436,0,7.335,2.898,7.335,7.164
			c0,4.263-2.9,7.163-7.335,7.163C197.341,59.401,194.356,56.501,194.356,52.239z"/>
		<path fill="#F7BB09" d="M359.262,52.239c0-4.266,2.984-7.164,7.333-7.164c4.436,0,7.334,2.898,7.334,7.164
			c0,4.263-2.898,7.163-7.334,7.163C362.246,59.401,359.262,56.501,359.262,52.239z"/>
		<path fill="#FFFFFF" d="M195.721,105.96V65.028c0-0.937,0.51-1.449,1.451-1.449h9.122c0.939,0,1.45,0.512,1.45,1.449v40.932
			c0,0.938-0.511,1.449-1.45,1.449h-9.122C196.231,107.409,195.721,106.898,195.721,105.96z"/>
		<path fill="#FFFFFF" d="M255.24,78.416v27.544c0,0.938-0.51,1.449-1.451,1.449h-9.124c-0.937,0-1.45-0.511-1.45-1.449V80.89
			c0-4.521-2.729-7.675-6.908-7.675c-4.177,0-7.077,3.07-7.077,7.675v25.07c0,0.938-0.511,1.449-1.449,1.449h-9.124
			c-0.938,0-1.45-0.511-1.45-1.449V65.028c0-0.937,0.512-1.449,1.45-1.449h9.124c0.938,0,1.449,0.512,1.449,1.449v2.389
			c0,0.425,0.257,0.596,0.512,0.255c2.388-3.24,5.799-4.775,10.317-4.775C249.014,62.897,255.24,68.696,255.24,78.416z"/>
		<path fill="#FFFFFF" d="M263.765,105.96V49.168c0-0.938,0.512-1.45,1.448-1.45h9.126c0.938,0,1.449,0.511,1.449,1.45v28.139
			c0,0.427,0.341,0.513,0.598,0.172l11.34-13.047c0.513-0.513,1.024-0.853,1.79-0.853h10.318c1.194,0,1.708,0.766,0.939,1.791
			l-10.489,13.13c-0.171,0.173-0.171,0.427-0.084,0.682l12.532,26.521c0.427,0.938,0,1.705-1.105,1.705h-9.638
			c-0.767,0-1.362-0.341-1.705-1.108l-8.271-19.526c-0.168-0.427-0.427-0.343-0.684-0.086l-5.284,6.737
			c-0.172,0.254-0.257,0.341-0.257,0.596v11.939c0,0.938-0.512,1.449-1.449,1.449h-9.126
			C264.276,107.409,263.765,106.898,263.765,105.96z"/>
		<path fill="#FFFFFF" d="M308.018,90.269V88.82c0-0.938,0.512-1.45,1.45-1.45h8.951c0.939,0,1.451,0.427,1.451,1.109v1.194
			c0,4.348,4.348,8.1,11.257,8.1c6.48,0,8.867-3.24,8.867-6.651c0-4.347-4.347-5.883-12.45-8.867
			c-8.868-3.071-19.101-7.079-19.101-18.335c0-10.488,8.612-16.883,20.806-16.883c13.135,0,22.429,7.333,22.429,18.334v0.853
			c0,0.937-0.514,1.449-1.452,1.449h-8.951c-0.938,0-1.451-0.34-1.451-0.853v-0.854c0-4.432-3.836-8.611-11-8.611
			c-5.457,0-8.526,2.387-8.526,6.396c0,4.435,3.753,5.969,13.217,9.294c7.761,2.815,18.506,6.14,18.506,17.737
			c0,10.404-8.444,17.312-21.83,17.312C316.801,108.093,308.018,101.099,308.018,90.269z"/>
		<path fill="#FFFFFF" d="M360.371,105.96V65.028c0-0.937,0.51-1.449,1.45-1.449h9.124c0.939,0,1.45,0.512,1.45,1.449v40.932
			c0,0.938-0.511,1.449-1.45,1.449h-9.124C360.881,107.409,360.371,106.898,360.371,105.96z"/>
		<path fill="#FFFFFF" d="M410.084,63.58h9.125c0.938,0,1.448,0.512,1.448,1.449v38.459c0,19.015-15.521,22-29.249,20.295
			c-0.938-0.085-1.278-0.683-1.278-1.536l0.341-7.931c0-0.937,0.683-1.449,1.62-1.278c9.979,1.365,16.543-0.597,16.543-9.636
			c0-0.341-0.255-0.426-0.596-0.087c-1.963,2.133-5.032,3.411-9.38,3.411c-6.396,0-13.985-2.642-16.8-11.34
			c-1.023-3.155-1.278-6.907-1.278-10.147c0-3.838,0.34-7.589,1.534-10.83c2.388-6.822,8.272-11.512,15.945-11.512
			c4.52,0,7.762,1.448,9.979,3.837c0.341,0.341,0.596,0.171,0.596-0.257v-1.449C408.634,64.091,409.146,63.58,410.084,63.58z
			 M408.634,85.153c0-3.752-0.255-5.202-0.766-6.822c-0.939-2.984-3.326-5.116-6.993-5.116c-3.583,0-5.884,2.217-6.992,5.116
			c-0.77,1.62-1.195,3.837-1.195,6.907c0,3.155,0.342,5.457,1.024,6.821c1.022,2.899,3.58,5.118,7.247,5.118
			c3.839,0,6.142-2.219,6.993-5.031C408.379,90.525,408.634,88.905,408.634,85.153z"/>
		<path fill="#FFFFFF" d="M467.298,78.416v27.544c0,0.938-0.511,1.449-1.447,1.449h-9.126c-0.938,0-1.449-0.511-1.449-1.449V80.89
			c0-4.521-2.728-7.675-6.908-7.675c-4.179,0-7.077,3.07-7.077,7.675v25.07c0,0.938-0.511,1.449-1.449,1.449h-9.124
			c-0.939,0-1.449-0.511-1.449-1.449V49.168c0-0.938,0.51-1.45,1.449-1.45h9.124c0.938,0,1.449,0.511,1.449,1.45v18.249
			c0,0.425,0.257,0.596,0.51,0.255c2.389-3.24,5.8-4.775,10.32-4.775C461.073,62.897,467.298,68.696,467.298,78.416z"/>
		<path fill="#FFFFFF" d="M499.613,73.215h-7.672c-0.343,0-0.512,0.17-0.512,0.511v17.651c0,3.667,1.448,5.457,4.859,5.457h2.387
			c0.938,0,1.449,0.512,1.449,1.45v7.335c0,0.852-0.512,1.448-1.449,1.533c-1.619,0.087-3.154,0.172-4.688,0.172
			c-8.698,0-14.072-2.047-14.156-11.256V73.727c0-0.341-0.17-0.511-0.512-0.511h-4.35c-0.938,0-1.45-0.513-1.45-1.451v-6.736
			c0-0.937,0.513-1.449,1.45-1.449h4.35c0.342,0,0.512-0.171,0.512-0.512v-9.636c0-0.938,0.512-1.449,1.449-1.449h8.697
			c0.938,0,1.452,0.512,1.452,1.449v9.636c0,0.341,0.169,0.512,0.512,0.512h7.672c0.938,0,1.449,0.512,1.449,1.449v6.736
			C501.063,72.703,500.551,73.215,499.613,73.215z"/>
		<g display="none">
			<g display="inline">
				<path fill="#3F50B0" d="M376.758,52.239c0,0.513-0.234,0.929-0.527,0.929h-19.695c-0.291,0-0.528-0.416-0.528-0.929l0,0
					c0-0.514,0.237-0.931,0.528-0.931h19.695C376.523,51.308,376.758,51.725,376.758,52.239L376.758,52.239z"/>
				<path fill="#3F50B0" d="M366.384,41.863c0.514,0,0.929,0.235,0.929,0.528v19.696c0,0.292-0.415,0.528-0.929,0.528l0,0
					c-0.514,0-0.931-0.236-0.931-0.528V42.391C365.453,42.098,365.87,41.863,366.384,41.863L366.384,41.863z"/>
			</g>
			<path display="inline" fill="#FFFFFF" d="M358.566,52.239c0-4.547,3.181-7.633,7.814-7.633c4.728,0,7.817,3.086,7.817,7.633
				c0,4.543-3.09,7.634-7.817,7.634C361.747,59.873,358.566,56.782,358.566,52.239z"/>
			<path display="inline" fill="#F7BB09" d="M359.05,52.239c0-4.266,2.984-7.164,7.331-7.164c4.437,0,7.336,2.898,7.336,7.164
				c0,4.263-2.899,7.163-7.336,7.163C362.034,59.401,359.05,56.501,359.05,52.239z"/>
			<path display="inline" fill="#FFFFFF" d="M362.704,52.239c0-2.14,1.498-3.595,3.677-3.595c2.228,0,3.683,1.455,3.683,3.595
				c0,2.139-1.455,3.594-3.683,3.594C364.202,55.833,362.704,54.377,362.704,52.239z"/>
		</g>
	</g>
</g>
</svg>
