<?xml version="1.0" encoding="UTF-8" standalone="no"?><!DOCTYPE svg PUBLIC "-//W3C//DTD SVG 1.1//EN" "http://www.w3.org/Graphics/SVG/1.1/DTD/svg11.dtd"><svg width="100%" height="100%" viewBox="0 0 180 120" version="1.1" xmlns="http://www.w3.org/2000/svg" xmlns:xlink="http://www.w3.org/1999/xlink" xml:space="preserve" xmlns:serif="http://www.serif.com/" style="fill-rule:evenodd;clip-rule:evenodd;stroke-linecap:round;stroke-miterlimit:1.5;"><rect x="24.375" y="13" width="131.25" height="84.375" style="fill:none;stroke:#3f50b0;stroke-width:3.5px;"/><path d="M165,97.375l0,-83.437c0,-5.692 -4.621,-10.313 -10.313,-10.313l-129.374,0c-5.692,0 -10.313,4.621 -10.313,10.313l0,83.437" style="fill:none;stroke:#3f50b0;stroke-width:3.5px;stroke-linejoin:round;"/><path d="M175,106.375l-170,0c0,5.519 4.232,10 9.444,10l151.112,0c5.212,0 9.444,-4.481 9.444,-10Z" style="fill:none;stroke:#3f50b0;stroke-width:3.5px;"/><path d="M104.167,106.375l-28.334,0c0,2.76 2.116,5 4.723,5l18.888,0c2.607,0 4.723,-2.24 4.723,-5Z" style="fill:none;stroke:#3f50b0;stroke-width:3.5px;"/><g><g><path d="M89.998,40.472c0.613,0 1.211,0.029 1.795,0.082l0,-4.349c0,-0.563 -0.802,-1.018 -1.791,-1.018c-0.99,0 -1.795,0.455 -1.795,1.018l0,4.352c0.584,-0.054 1.18,-0.085 1.791,-0.085Z" style="fill:#3f50b0;fill-rule:nonzero;"/><path d="M89.998,69.902c-0.611,0 -1.207,-0.03 -1.791,-0.085l0,4.353c0,0.563 0.805,1.018 1.795,1.018c0.99,0 1.791,-0.455 1.791,-1.018l0,-4.35c-0.584,0.053 -1.182,0.082 -1.795,0.082Z" style="fill:#3f50b0;fill-rule:nonzero;"/></g><g><path d="M74.933,55.187c0,-0.612 0.033,-1.209 0.091,-1.793l-4.007,0c-0.561,0 -1.017,0.801 -1.017,1.793c0,0.99 0.456,1.792 1.017,1.792l4.007,0c-0.058,-0.583 -0.091,-1.18 -0.091,-1.792Z" style="fill:#3f50b0;fill-rule:nonzero;"/><path d="M108.983,53.394l-4.005,0c0.057,0.584 0.089,1.181 0.089,1.794c0,0.612 -0.032,1.208 -0.089,1.792l4.005,0c0.565,0 1.017,-0.803 1.017,-1.792c0,-0.993 -0.452,-1.794 -1.017,-1.794Z" style="fill:#3f50b0;fill-rule:nonzero;"/></g><path d="M89.998,41.38c-8.381,0 -14.134,5.585 -14.134,13.807c0,8.218 5.753,13.808 14.134,13.808c8.55,0 14.139,-5.59 14.139,-13.808c0,-8.222 -5.589,-13.807 -14.139,-13.807Zm0,20.736c-4.202,0 -7.089,-2.806 -7.089,-6.929c0,-4.124 2.887,-6.927 7.089,-6.927c4.293,0 7.097,2.803 7.097,6.927c0,4.123 -2.804,6.929 -7.097,6.929Z" style="fill:#f7bb09;fill-rule:nonzero;"/></g></svg>