<?xml version="1.0" encoding="utf-8"?>
<!-- Generator: Adobe Illustrator 16.0.0, SVG Export Plug-In . SVG Version: 6.00 Build 0)  -->
<!DOCTYPE svg PUBLIC "-//W3C//DTD SVG 1.1//EN" "http://www.w3.org/Graphics/SVG/1.1/DTD/svg11.dtd">
<svg version="1.1" xmlns="http://www.w3.org/2000/svg" xmlns:xlink="http://www.w3.org/1999/xlink" x="0px" y="0px" width="180px"
	 height="180px" viewBox="0 0 180 180" enable-background="new 0 0 180 180" xml:space="preserve">
<g id="Style_guide">
</g>
<g id="icons">
	<g>
		<rect fill="#FF6633" width="180" height="179.999"/>
		<g>
			<g>
				<g>
					<g>
						<path fill="#FF6633" stroke="#FFFFFF" stroke-width="3.5" stroke-miterlimit="10" d="M65.503,71.123
							c0,8.715-7.057,15.773-15.761,15.773c-8.714,0-15.781-7.058-15.781-15.773c0-8.71,7.067-15.772,15.781-15.772
							C58.447,55.351,65.503,62.413,65.503,71.123z"/>
					</g>
					<g>
						<path fill="#FFFFFF" d="M49.743,124.22c-21.783,0-28.913-9.021-29.208-9.405c-0.231-0.304-0.358-0.676-0.358-1.058v-4.99
							c0-12.115,7.263-22.876,18.503-27.421c0.618-0.247,1.314-0.128,1.81,0.308c5.127,4.517,13.374,4.517,18.491,0
							c0.499-0.436,1.2-0.558,1.813-0.308c11.239,4.545,18.504,15.308,18.504,27.421v5.817c0,0.413-0.143,0.811-0.41,1.126
							C78.593,116.057,71.459,124.22,49.743,124.22z M23.667,113.084c1.602,1.602,8.77,7.643,26.076,7.643
							c17.116,0,24.343-5.339,26.064-6.874v-5.087c0-10.34-6.002-19.565-15.379-23.781c-6.109,4.737-15.265,4.737-21.384,0
							c-9.375,4.216-15.377,13.441-15.377,23.781V113.084z"/>
					</g>
				</g>
				<g>
					<g>
						<g>
							<g>
								<path fill="#FF6633" d="M132.868,86.309c-9.661,0-17.521-7.86-17.521-17.522c0-9.663,7.86-17.523,17.521-17.523
									c9.661,0,17.521,7.861,17.521,17.523C150.389,78.448,142.529,86.309,132.868,86.309z"/>
								<path fill="#FFFFFF" d="M132.868,53.013c8.709,0,15.771,7.063,15.771,15.773c0,8.714-7.062,15.772-15.771,15.772
									c-8.714,0-15.771-7.058-15.771-15.772C117.097,60.076,124.154,53.013,132.868,53.013 M132.868,49.513
									c-10.626,0-19.271,8.646-19.271,19.273c0,10.626,8.645,19.272,19.271,19.272s19.271-8.646,19.271-19.272
									C152.139,58.159,143.494,49.513,132.868,49.513L132.868,49.513z"/>
							</g>
						</g>
					</g>
					<g>
						<path fill="#FFFFFF" d="M132.868,124.22c-21.78,0-28.908-9.021-29.203-9.405c-0.229-0.305-0.355-0.676-0.355-1.058v-4.99
							c0-12.115,7.262-22.878,18.499-27.421c0.618-0.247,1.316-0.128,1.807,0.308c5.13,4.519,13.384,4.515,18.499,0
							c0.496-0.436,1.197-0.558,1.813-0.308c11.238,4.545,18.503,15.306,18.503,27.421v5.817c0,0.413-0.15,0.811-0.412,1.126
							C161.723,116.057,154.592,124.22,132.868,124.22z M106.799,113.084c1.601,1.602,8.77,7.643,26.068,7.643
							c17.126,0,24.351-5.339,26.069-6.871v-5.089c0-10.34-6.002-19.565-15.377-23.781c-6.104,4.738-15.265,4.738-21.386,0
							c-9.373,4.215-15.374,13.44-15.374,23.781V113.084z"/>
					</g>
				</g>
			</g>
			<g>
				<g>
					<g>
						<g>
							<g>
								<g>
									<path fill="#FF6633" d="M113.958,79.07c0,12.728-10.303,23.019-23.011,23.019c-12.713,0-23.013-10.291-23.013-23.019
										c0-12.701,10.3-23.012,23.013-23.012C103.655,56.059,113.958,66.369,113.958,79.07z"/>
								</g>
							</g>
							<g>
								<g>
									<path fill="#FF6633" d="M91.806,149.409c-30.354,0-40.238-12.502-40.64-13.032c-0.272-0.353-0.415-0.788-0.415-1.23v-6.997
										c0-16.827,10.087-31.777,25.695-38.089c0.717-0.289,1.533-0.149,2.102,0.358c7.341,6.471,19.169,6.471,26.511,0
										c0.569-0.507,1.39-0.651,2.1-0.358c15.613,6.312,25.708,21.262,25.708,38.089v8.161c0,0.479-0.17,0.943-0.48,1.308
										C131.983,138.102,122.092,149.409,91.806,149.409z"/>
								</g>
							</g>
						</g>
					</g>
				</g>
				<g>
					<g>
						<g>
							<path fill="#FF6633" stroke="#FFFFFF" stroke-width="3.5" stroke-miterlimit="10" d="M109.984,79.073
								c0,10.53-8.523,19.047-19.04,19.047c-10.519,0-19.042-8.517-19.042-19.047c0-10.513,8.523-19.044,19.042-19.044
								C101.461,60.029,109.984,68.561,109.984,79.073z"/>
						</g>
					</g>
					<g>
						<g>
							<path fill="#FFFFFF" d="M90.944,143.797c-26.122,0-34.628-10.757-34.974-11.213c-0.234-0.305-0.356-0.68-0.356-1.06v-6.021
								c0-14.48,8.679-27.346,22.113-32.777c0.615-0.248,1.317-0.128,1.808,0.308c6.319,5.569,16.496,5.569,22.813,0
								c0.49-0.436,1.197-0.561,1.81-0.308c13.435,5.431,22.121,18.296,22.121,32.777v7.024c0,0.412-0.145,0.81-0.412,1.125
								C125.516,134.068,117.008,143.797,90.944,143.797z M59.103,130.859c1.782,1.837,10.458,9.448,31.842,9.448
								c21.186,0,29.925-6.744,31.839-8.502v-6.302c0-12.704-7.416-24.029-18.981-29.137c-7.319,5.791-18.397,5.788-25.721,0
								c-11.561,5.108-18.979,16.432-18.979,29.137V130.859z"/>
						</g>
					</g>
				</g>
			</g>
			<g>
				<path fill="#F7BC0C" d="M110.29,109.837c0,3.795-3.076,6.874-6.879,6.874c-3.793,0-6.871-3.078-6.871-6.874
					c0-3.798,3.078-6.87,6.871-6.87C107.213,102.967,110.29,106.039,110.29,109.837z"/>
			</g>
			<g>
				<path fill="#F7BC0C" d="M150.764,98.343c0,3.174-2.57,5.749-5.752,5.749c-3.17,0-5.748-2.575-5.748-5.749
					c0-3.176,2.578-5.746,5.748-5.746C148.194,92.597,150.764,95.167,150.764,98.343z"/>
			</g>
			<g>
				<path fill="#F7BC0C" d="M44.354,98.343c0,3.174-2.572,5.749-5.752,5.749c-3.172,0-5.748-2.575-5.748-5.749
					c0-3.176,2.575-5.746,5.748-5.746C41.781,92.597,44.354,95.167,44.354,98.343z"/>
			</g>
		</g>
	</g>
</g>
<g id="Map">
</g>
<g id="map_final">
</g>
</svg>
