<svg xmlns="http://www.w3.org/2000/svg" xmlns:xlink="http://www.w3.org/1999/xlink" width="180" height="180">
  <path fill="#2BB673" d="M0-.055h180.055v180.054H0z"/>
  <path fill="#F7BC0C" d="M130.136 104.248a6.98 6.98 0 0 1-6.983 6.982 6.983 6.983 0 0 1-6.98-6.982 6.978 6.978 0 0 1 6.98-6.977 6.974 6.974 0 0 1 6.983 6.977z"/>
  <path fill="#FFF" d="M117.97 131.726c-6.332 0-10.697-2.034-14.63-4.115a1.708 1.708 0 0 1-.904-1.503v-20.22H82.255v14.758a1.7 1.7 0 0 1-1.461 1.682c-2.773.398-5.844 1.13-9.121 2.173-8.911 4.602-15.879 6.797-21.654 6.797-1.683 0-3.287-.179-4.894-.55a1.705 1.705 0 0 1-1.318-1.657V90.565h-16.76a1.7 1.7 0 1 1-1.05-3.038l65.847-51.404a1.696 1.696 0 0 1 2.094.004l15.435 12.172v-3.156c0-.938.761-1.697 1.704-1.697h15.226c.945 0 1.701.759 1.701 1.697v17.831l30.906 24.359c.575.272.968.857.968 1.534.002.949-.726 1.787-1.729 1.697h-16.512v30.614c0 .474-.194.925-.542 1.248-3.943 3.656-10.62 8.214-20.027 9.141a31.856 31.856 0 0 1-3.098.159zm-12.135-6.649c3.895 1.999 8.324 3.752 14.898 3.11 8.051-.796 13.887-4.55 17.504-7.761V88.868c0-.938.759-1.699 1.701-1.699h13.271l-27.958-22.038a1.696 1.696 0 0 1-.646-1.332V46.844h-11.831v4.955a1.702 1.702 0 0 1-2.751 1.337L92.88 39.623 31.983 87.169h13.522c.942 0 1.699.76 1.699 1.699v38.82c5.902.915 12.894-1.038 23.179-6.316 3.113-1.013 5.905-1.722 8.472-2.174v-15.01c0-.94.759-1.7 1.699-1.7h23.583c.938 0 1.699.76 1.699 1.7v20.889z"/>
  <path fill="#FFF" d="M153.739 90.565H27.046c-.938 0-1.704-.759-1.704-1.697s.766-1.699 1.704-1.699h126.693a1.698 1.698 0 1 1 0 3.396z"/>
  <defs>
    <path id="a" d="M15.563 11.654h148.935v148.938H15.563z"/>
  </defs>
  <clipPath id="b">
    <use xlink:href="#a" overflow="visible"/>
  </clipPath>
  <g clip-path="url(#b)">
    <path fill="#FFF" d="M-13.642 151.475a1.695 1.695 0 0 1-1.607-2.245c.069-.203 7.19-20.239 32.98-20.239 9.933 0 15.961 2.542 21.284 4.777 7.977 3.359 14.278 6.01 31.389-2.48 17.448-7.484 25.904-2.5 34.081 2.314 5.282 3.118 10.263 6.038 17.795 5.761 13.458-.531 23.544-12.302 23.649-12.422a1.702 1.702 0 0 1 2.393-.205 1.7 1.7 0 0 1 .204 2.394c-.449.533-11.133 13.037-26.116 13.626-8.498.372-14.173-2.999-19.649-6.226-7.788-4.585-15.149-8.919-30.929-2.159-18.426 9.147-25.706 6.081-34.134 2.527-5.024-2.112-10.717-4.51-19.966-4.51-23.381 0-29.706 17.755-29.764 17.936a1.703 1.703 0 0 1-1.61 1.151z"/>
  </g>
  <g clip-path="url(#b)">
    <path fill="#FFF" d="M61.41 156.764a1.699 1.699 0 0 1-1.481-2.533c.317-.555 7.885-13.629 24.776-15.293 8.769-.846 14.556 2.621 20.163 5.982 7.739 4.645 15.052 9.026 30.518 2.397 20.88-12.058 27.642-8.13 35.48-3.58 4.707 2.734 9.578 5.562 18.62 5.562 23.384 0 29.706-17.756 29.767-17.936a1.697 1.697 0 1 1 3.214 1.095c-.066.203-7.19 20.239-32.98 20.239-9.956 0-15.465-3.2-20.326-6.02-7.486-4.349-12.894-7.49-32.249 3.673-17.243 7.403-25.662 2.364-33.787-2.517-5.374-3.222-10.439-6.272-18.084-5.515-15.154 1.493-22.078 13.463-22.147 13.582a1.703 1.703 0 0 1-1.484.864z"/>
  </g>
</svg>
