<svg xmlns="http://www.w3.org/2000/svg" width="180" height="180">
  <path fill="#F63" d="M0 0h180v179.999H0z"/>
  <path fill="#F63" stroke="#FFF" stroke-width="3.5" stroke-miterlimit="10" d="M65.503 71.123c0 8.715-7.057 15.773-15.761 15.773-8.714 0-15.781-7.058-15.781-15.773 0-8.71 7.067-15.772 15.781-15.772 8.705 0 15.761 7.062 15.761 15.772z"/>
  <path fill="#FFF" d="M49.743 124.22c-21.783 0-28.913-9.021-29.208-9.405a1.751 1.751 0 0 1-.358-1.058v-4.99c0-12.115 7.263-22.876 18.503-27.421a1.75 1.75 0 0 1 1.81.308c5.127 4.517 13.374 4.517 18.491 0a1.751 1.751 0 0 1 1.813-.308c11.239 4.545 18.504 15.308 18.504 27.421v5.817c0 .413-.143.811-.41 1.126-.295.347-7.429 8.51-29.145 8.51zm-26.076-11.136c1.602 1.602 8.77 7.643 26.076 7.643 17.116 0 24.343-5.339 26.064-6.874v-5.087c0-10.34-6.002-19.565-15.379-23.781-6.109 4.737-15.265 4.737-21.384 0-9.375 4.216-15.377 13.441-15.377 23.781v4.318z"/>
  <path fill="#F63" d="M132.868 86.309c-9.661 0-17.521-7.86-17.521-17.522 0-9.663 7.86-17.523 17.521-17.523 9.661 0 17.521 7.861 17.521 17.523 0 9.661-7.86 17.522-17.521 17.522z"/>
  <path fill="#FFF" d="M132.868 53.013c8.709 0 15.771 7.063 15.771 15.773 0 8.714-7.062 15.772-15.771 15.772-8.714 0-15.771-7.058-15.771-15.772 0-8.71 7.057-15.773 15.771-15.773m0-3.5c-10.626 0-19.271 8.646-19.271 19.273 0 10.626 8.645 19.272 19.271 19.272s19.271-8.646 19.271-19.272c0-10.627-8.645-19.273-19.271-19.273z"/>
  <path fill="#FFF" d="M132.868 124.22c-21.78 0-28.908-9.021-29.203-9.405a1.764 1.764 0 0 1-.355-1.058v-4.99c0-12.115 7.262-22.878 18.499-27.421a1.743 1.743 0 0 1 1.807.308c5.13 4.519 13.384 4.515 18.499 0a1.75 1.75 0 0 1 1.813-.308c11.238 4.545 18.503 15.306 18.503 27.421v5.817c0 .413-.15.811-.412 1.126-.296.347-7.427 8.51-29.151 8.51zm-26.069-11.136c1.601 1.602 8.77 7.643 26.068 7.643 17.126 0 24.351-5.339 26.069-6.871v-5.089c0-10.34-6.002-19.565-15.377-23.781-6.104 4.738-15.265 4.738-21.386 0-9.373 4.215-15.374 13.44-15.374 23.781v4.317z"/>
  <g>
    <path fill="#F63" d="M113.958 79.07c0 12.728-10.303 23.019-23.011 23.019-12.713 0-23.013-10.291-23.013-23.019 0-12.701 10.3-23.012 23.013-23.012 12.708.001 23.011 10.311 23.011 23.012z"/>
    <path fill="#F63" d="M91.806 149.409c-30.354 0-40.238-12.502-40.64-13.032a2.016 2.016 0 0 1-.415-1.23v-6.997c0-16.827 10.087-31.777 25.695-38.089a2.024 2.024 0 0 1 2.102.358c7.341 6.471 19.169 6.471 26.511 0a2.015 2.015 0 0 1 2.1-.358c15.613 6.312 25.708 21.262 25.708 38.089v8.161c0 .479-.17.943-.48 1.308-.404.483-10.295 11.79-40.581 11.79z"/>
    <g>
      <path fill="#F63" stroke="#FFF" stroke-width="3.5" stroke-miterlimit="10" d="M109.984 79.073c0 10.53-8.523 19.047-19.04 19.047-10.519 0-19.042-8.517-19.042-19.047 0-10.513 8.523-19.044 19.042-19.044 10.517 0 19.04 8.532 19.04 19.044z"/>
      <path fill="#FFF" d="M90.944 143.797c-26.122 0-34.628-10.757-34.974-11.213a1.742 1.742 0 0 1-.356-1.06v-6.021c0-14.48 8.679-27.346 22.113-32.777a1.743 1.743 0 0 1 1.808.308c6.319 5.569 16.496 5.569 22.813 0a1.737 1.737 0 0 1 1.81-.308c13.435 5.431 22.121 18.296 22.121 32.777v7.024c0 .412-.145.81-.412 1.125-.351.416-8.859 10.145-34.923 10.145zm-31.841-12.938c1.782 1.837 10.458 9.448 31.842 9.448 21.186 0 29.925-6.744 31.839-8.502v-6.302c0-12.704-7.416-24.029-18.981-29.137-7.319 5.791-18.397 5.788-25.721 0-11.561 5.108-18.979 16.432-18.979 29.137v5.356z"/>
    </g>
  </g>
  <g>
    <path fill="#F7BC0C" d="M110.29 109.837a6.875 6.875 0 0 1-13.75 0 6.87 6.87 0 0 1 6.871-6.87 6.87 6.87 0 0 1 6.879 6.87z"/>
  </g>
  <g>
    <path fill="#F7BC0C" d="M150.764 98.343a5.748 5.748 0 0 1-5.752 5.749 5.752 5.752 0 0 1-5.748-5.749 5.748 5.748 0 0 1 5.748-5.746 5.744 5.744 0 0 1 5.752 5.746z"/>
  </g>
  <g>
    <path fill="#F7BC0C" d="M44.354 98.343a5.75 5.75 0 0 1-11.5 0 5.746 5.746 0 0 1 5.748-5.746 5.746 5.746 0 0 1 5.752 5.746z"/>
  </g>
</svg>
