<svg xmlns="http://www.w3.org/2000/svg" width="180" height="180">
  <path fill="#8B46FF" d="M0 0h180v180H0z"/>
  <path fill="#FFF" d="M126.464 152.841l-71.33-.169a1.68 1.68 0 0 1-1.677-1.681v-47.765h-3.894a1.682 1.682 0 0 1-.727-3.198l41.235-19.862c.46-.222 1-.222 1.46 0l41.236 19.862a1.682 1.682 0 0 1-.732 3.198h-3.894v47.932c0 .447-.176.875-.49 1.191a1.683 1.683 0 0 1-1.187.492zm-69.643-3.53l67.958.162v-47.928c0-.535.253-1.013.643-1.32L90.802 83.55l-34.621 16.675c.388.308.641.785.641 1.32l-.001 47.766zM47.733 152.841H22.691a1.687 1.687 0 0 1-1.683-1.684v-30.343c0-.928.758-1.682 1.683-1.682h25.042c.927 0 1.68.754 1.68 1.682v30.343c0 .93-.753 1.684-1.68 1.684zm-23.36-3.364h21.675v-26.979H24.373v26.979zM157.302 152.841h-23.864a1.685 1.685 0 0 1-1.684-1.684v-14.159c0-.93.756-1.684 1.684-1.684h23.864c.929 0 1.683.754 1.683 1.684v14.159a1.685 1.685 0 0 1-1.683 1.684zm-22.181-3.364h20.498V138.68h-20.498v10.797z"/>
  <path fill="#FFF" d="M90.865 152.841H80.307a1.682 1.682 0 0 1-1.683-1.684v-19.103c0-.93.75-1.684 1.683-1.684h10.559c.93 0 1.683.753 1.683 1.684v19.103a1.685 1.685 0 0 1-1.684 1.684zm-8.879-3.364h7.197v-15.742h-7.197v15.742z"/>
  <path fill="#FFF" d="M103.191 152.841H92.629a1.681 1.681 0 0 1-1.682-1.684v-19.103c0-.93.75-1.684 1.682-1.684h10.563c.924 0 1.68.753 1.68 1.684v19.103a1.686 1.686 0 0 1-1.681 1.684zm-8.88-3.364h7.198v-15.742h-7.198v15.742zM108.782 54.84H72.857a1.685 1.685 0 0 1-1.504-.924 1.686 1.686 0 0 1 .151-1.756l17.945-24.309c.635-.858 2.07-.858 2.708 0l17.761 24.068c.337.305.549.748.549 1.241 0 .928-.756 1.68-1.685 1.68zm-32.594-3.362h29.224l-14.61-19.797-14.614 19.797z"/>
  <path fill="#F7BC0C" d="M95.396 64.088a4.592 4.592 0 0 1-4.595 4.596 4.593 4.593 0 0 1-4.596-4.596 4.593 4.593 0 0 1 4.596-4.596 4.592 4.592 0 0 1 4.595 4.596zM75.246 110.905a6.116 6.116 0 0 1-6.117 6.112 6.113 6.113 0 1 1 0-12.227 6.117 6.117 0 0 1 6.117 6.115zM96.918 110.905a6.113 6.113 0 0 1-6.117 6.112 6.112 6.112 0 0 1-6.114-6.112 6.112 6.112 0 0 1 6.114-6.115 6.113 6.113 0 0 1 6.117 6.115zM118.588 110.905a6.111 6.111 0 0 1-6.111 6.112 6.11 6.11 0 0 1-6.115-6.112 6.11 6.11 0 0 1 6.115-6.115 6.112 6.112 0 0 1 6.111 6.115z"/>
  <path fill="#FFF" d="M106.061 82.074c-.25 0-.498-.055-.731-.166L90.803 74.91l-14.526 6.995a1.679 1.679 0 0 1-2.412-1.513V53.347c0-.927.75-1.68 1.682-1.68h30.516c.928 0 1.684.753 1.684 1.68v27.045c0 .579-.299 1.117-.789 1.426a1.699 1.699 0 0 1-.897.256zM90.802 71.362c.25 0 .498.055.73.167l12.844 6.186V55.032H77.225v22.682l12.846-6.185c.23-.112.478-.167.731-.167z"/>
</svg>
