<?xml version="1.0" encoding="utf-8"?>
<!-- Generator: Adobe Illustrator 16.0.0, SVG Export Plug-In . SVG Version: 6.00 Build 0)  -->
<!DOCTYPE svg PUBLIC "-//W3C//DTD SVG 1.1//EN" "http://www.w3.org/Graphics/SVG/1.1/DTD/svg11.dtd">
<svg version="1.1" id="Layer_1" xmlns="http://www.w3.org/2000/svg" xmlns:xlink="http://www.w3.org/1999/xlink" x="0px" y="0px"
	 width="180px" height="180px" viewBox="0 0 180 180" enable-background="new 0 0 180 180" xml:space="preserve">
<g id="Style_guide">
</g>
<g id="icons">
	<g>
		<g>
			<rect fill="#8B46FF" width="180" height="180"/>
		</g>
		<g>
			<g>
				<path fill="#FFFFFF" d="M126.464,152.841L126.464,152.841l-71.33-0.169c-0.927-0.001-1.677-0.754-1.677-1.681v-47.765h-3.894
					c-0.781,0-1.465-0.541-1.639-1.31c-0.173-0.765,0.202-1.547,0.912-1.888l41.235-19.862c0.46-0.222,1-0.222,1.46,0l41.236,19.862
					c0.707,0.341,1.084,1.125,0.91,1.888c-0.179,0.767-0.854,1.31-1.642,1.31h-3.894v47.932c0,0.447-0.176,0.875-0.49,1.191
					C127.337,152.663,126.908,152.841,126.464,152.841z M56.821,149.311l67.958,0.162v-47.928c0-0.535,0.253-1.013,0.643-1.32
					L90.802,83.55l-34.621,16.675c0.388,0.308,0.641,0.785,0.641,1.32L56.821,149.311L56.821,149.311z"/>
			</g>
			<g>
				<path fill="#FFFFFF" d="M47.733,152.841H22.691c-0.924,0-1.683-0.754-1.683-1.684v-30.343c0-0.928,0.758-1.682,1.683-1.682
					h25.042c0.927,0,1.68,0.754,1.68,1.682v30.343C49.413,152.087,48.66,152.841,47.733,152.841z M24.373,149.477h21.675v-26.979
					H24.373V149.477z"/>
			</g>
			<g>
				<path fill="#FFFFFF" d="M157.302,152.841h-23.864c-0.928,0-1.684-0.754-1.684-1.684v-14.159c0-0.93,0.756-1.684,1.684-1.684
					h23.864c0.929,0,1.683,0.754,1.683,1.684v14.159C158.984,152.087,158.23,152.841,157.302,152.841z M135.121,149.477h20.498
					V138.68h-20.498V149.477z"/>
			</g>
			<g>
				<path fill="#FFFFFF" d="M90.865,152.841H80.307c-0.932,0-1.683-0.754-1.683-1.684v-19.103c0-0.93,0.75-1.684,1.683-1.684h10.559
					c0.93,0,1.683,0.753,1.683,1.684v19.103C92.548,152.087,91.795,152.841,90.865,152.841z M81.986,149.477h7.197v-15.742h-7.197
					V149.477z"/>
			</g>
			<g>
				<path fill="#FFFFFF" d="M103.191,152.841H92.629c-0.932,0-1.682-0.754-1.682-1.684v-19.103c0-0.93,0.75-1.684,1.682-1.684
					h10.563c0.924,0,1.68,0.753,1.68,1.684v19.103C104.871,152.087,104.115,152.841,103.191,152.841z M94.311,149.477h7.198v-15.742
					h-7.198V149.477z"/>
			</g>
			<g>
				<path fill="#FFFFFF" d="M108.782,54.84c-0.013,0-0.023,0-0.038,0H72.857c-0.638,0-1.215-0.357-1.504-0.924
					c-0.283-0.565-0.227-1.244,0.151-1.756l17.945-24.309c0.635-0.858,2.07-0.858,2.708,0l17.761,24.068
					c0.337,0.305,0.549,0.748,0.549,1.241C110.467,54.088,109.711,54.84,108.782,54.84z M76.188,51.478h29.224l-14.61-19.797
					L76.188,51.478z"/>
			</g>
			<g>
				<path fill="#F7BC0C" d="M95.396,64.088c0,2.541-2.055,4.596-4.595,4.596c-2.54,0-4.596-2.055-4.596-4.596
					c0-2.542,2.056-4.596,4.596-4.596C93.342,59.492,95.396,61.547,95.396,64.088z"/>
			</g>
			<g>
				<path fill="#F7BC0C" d="M75.246,110.905c0,3.376-2.742,6.112-6.117,6.112c-3.38,0-6.117-2.736-6.117-6.112
					c0-3.38,2.736-6.115,6.117-6.115C72.504,104.791,75.246,107.525,75.246,110.905z"/>
			</g>
			<g>
				<path fill="#F7BC0C" d="M96.918,110.905c0,3.376-2.736,6.112-6.117,6.112c-3.378,0-6.114-2.736-6.114-6.112
					c0-3.38,2.736-6.115,6.114-6.115C94.182,104.791,96.918,107.525,96.918,110.905z"/>
			</g>
			<g>
				<path fill="#F7BC0C" d="M118.588,110.905c0,3.376-2.736,6.112-6.111,6.112c-3.381,0-6.115-2.736-6.115-6.112
					c0-3.38,2.734-6.115,6.115-6.115C115.852,104.791,118.588,107.525,118.588,110.905z"/>
			</g>
			<g>
				<path fill="#FFFFFF" d="M106.061,82.074c-0.25,0-0.498-0.055-0.731-0.166L90.803,74.91l-14.526,6.995
					c-0.521,0.254-1.136,0.218-1.626-0.089c-0.488-0.309-0.786-0.845-0.786-1.424V53.347c0-0.927,0.75-1.68,1.682-1.68h30.516
					c0.928,0,1.684,0.753,1.684,1.68v27.045c0,0.579-0.299,1.117-0.789,1.426C106.684,81.989,106.37,82.074,106.061,82.074z
					 M90.802,71.362c0.25,0,0.498,0.055,0.73,0.167l12.844,6.186V55.032H77.225v22.682l12.846-6.185
					C90.301,71.417,90.549,71.362,90.802,71.362z"/>
			</g>
		</g>
	</g>
</g>
<g id="Map">
</g>
<g id="map_final">
</g>
</svg>
