<?xml version="1.0" encoding="utf-8"?>
<!-- Generator: Adobe Illustrator 16.0.0, SVG Export Plug-In . SVG Version: 6.00 Build 0)  -->
<!DOCTYPE svg PUBLIC "-//W3C//DTD SVG 1.1//EN" "http://www.w3.org/Graphics/SVG/1.1/DTD/svg11.dtd">
<svg version="1.1" xmlns="http://www.w3.org/2000/svg" xmlns:xlink="http://www.w3.org/1999/xlink" x="0px" y="0px" width="180px"
	 height="180px" viewBox="0 0 180 180" enable-background="new 0 0 180 180" xml:space="preserve">
<g id="Style_guide">
</g>
<g id="icons">
	<g>
		<rect y="-0.055" fill="#2BB673" width="180.055" height="180.054"/>
		<g>
			<g>
				<path fill="#F7BC0C" d="M130.136,104.248c0,3.855-3.121,6.982-6.983,6.982c-3.852,0-6.98-3.126-6.98-6.982
					c0-3.857,3.128-6.977,6.98-6.977C127.015,97.271,130.136,100.391,130.136,104.248z"/>
			</g>
			<g>
				<path fill="#FFFFFF" d="M117.97,131.726c-6.332,0-10.697-2.034-14.63-4.115c-0.554-0.295-0.904-0.875-0.904-1.503v-20.22H82.255
					v14.758c0,0.846-0.623,1.561-1.461,1.682c-2.773,0.398-5.844,1.13-9.121,2.173c-8.911,4.602-15.879,6.797-21.654,6.797l0,0
					c-1.683,0-3.287-0.179-4.894-0.55c-0.771-0.182-1.318-0.866-1.318-1.657V90.565h-16.76c-0.728,0-1.372-0.458-1.607-1.145
					c-0.237-0.687-0.013-1.445,0.557-1.893l65.847-51.404c0.615-0.482,1.481-0.479,2.094,0.004l15.435,12.172v-3.156
					c0-0.938,0.761-1.697,1.704-1.697h15.226c0.945,0,1.701,0.759,1.701,1.697v17.831l30.906,24.359
					c0.575,0.272,0.968,0.857,0.968,1.534c0.002,0.949-0.726,1.787-1.729,1.697c-0.013,0-0.023,0-0.033,0h-16.479v30.614
					c0,0.474-0.194,0.925-0.542,1.248c-3.943,3.656-10.62,8.214-20.027,9.141C119.983,131.673,118.954,131.726,117.97,131.726z
					 M105.835,125.077c3.895,1.999,8.324,3.752,14.898,3.11c8.051-0.796,13.887-4.55,17.504-7.761V88.868
					c0-0.938,0.759-1.699,1.701-1.699h13.271l-27.958-22.038c-0.406-0.319-0.646-0.811-0.646-1.332V46.844h-11.831v4.955
					c0,0.652-0.373,1.245-0.958,1.53c-0.583,0.286-1.285,0.211-1.793-0.193L92.88,39.623L31.983,87.169h13.522
					c0.942,0,1.699,0.76,1.699,1.699v38.82c5.902,0.915,12.894-1.038,23.179-6.316c3.113-1.013,5.905-1.722,8.472-2.174v-15.01
					c0-0.94,0.759-1.7,1.699-1.7h23.583c0.938,0,1.699,0.76,1.699,1.7V125.077z"/>
			</g>
			<g>
				<path fill="#FFFFFF" d="M153.739,90.565H27.046c-0.938,0-1.704-0.759-1.704-1.697s0.766-1.699,1.704-1.699h126.693
					c0.938,0,1.698,0.76,1.698,1.699S154.677,90.565,153.739,90.565z"/>
			</g>
			<g>
				<defs>
					<rect id="SVGID_7_" x="15.563" y="11.654" width="148.935" height="148.938"/>
				</defs>
				<clipPath id="SVGID_2_">
					<use xlink:href="#SVGID_7_"  overflow="visible"/>
				</clipPath>
				<g clip-path="url(#SVGID_2_)">
					<path fill="#FFFFFF" d="M-13.642,151.475c-0.179,0-0.368-0.029-0.549-0.092c-0.886-0.301-1.362-1.267-1.058-2.153
						c0.069-0.203,7.19-20.239,32.98-20.239c9.933,0,15.961,2.542,21.284,4.777c7.977,3.359,14.278,6.01,31.389-2.48
						c17.448-7.484,25.904-2.5,34.081,2.314c5.282,3.118,10.263,6.038,17.795,5.761c13.458-0.531,23.544-12.302,23.649-12.422
						c0.605-0.716,1.675-0.807,2.393-0.205c0.718,0.605,0.807,1.677,0.204,2.394c-0.449,0.533-11.133,13.037-26.116,13.626
						c-8.498,0.372-14.173-2.999-19.649-6.226c-7.788-4.585-15.149-8.919-30.929-2.159c-18.426,9.147-25.706,6.081-34.134,2.527
						c-5.024-2.112-10.717-4.51-19.966-4.51c-23.381,0-29.706,17.755-29.764,17.936C-12.273,151.03-12.935,151.475-13.642,151.475z"
						/>
				</g>
				<g clip-path="url(#SVGID_2_)">
					<path fill="#FFFFFF" d="M61.41,156.764c-0.281,0-0.567-0.069-0.83-0.219c-0.82-0.46-1.111-1.498-0.651-2.314
						c0.317-0.555,7.885-13.629,24.776-15.293c8.769-0.846,14.556,2.621,20.163,5.982c7.739,4.645,15.052,9.026,30.518,2.397
						c20.88-12.058,27.642-8.13,35.48-3.58c4.707,2.734,9.578,5.562,18.62,5.562c23.384,0,29.706-17.756,29.767-17.936
						c0.301-0.887,1.27-1.362,2.151-1.06c0.894,0.302,1.364,1.267,1.063,2.155c-0.066,0.203-7.19,20.239-32.98,20.239
						c-9.956,0-15.465-3.2-20.326-6.02c-7.486-4.349-12.894-7.49-32.249,3.673c-17.243,7.403-25.662,2.364-33.787-2.517
						c-5.374-3.222-10.439-6.272-18.084-5.515c-15.154,1.493-22.078,13.463-22.147,13.582
						C62.578,156.454,62.005,156.764,61.41,156.764z"/>
				</g>
			</g>
		</g>
	</g>
</g>
<g id="Map">
</g>
<g id="map_final">
</g>
</svg>
